<svg xmlns="http://www.w3.org/2000/svg" viewBox="4 3 56 56">
  <!-- Gum base -->
  <path d="M6 44 C6 44 6 18 32 18 C58 18 58 44 58 44 Z" fill="#f28b82"/>
  <!-- Palate top line -->
  <path d="M10 36 Q32 28 54 36" fill="none" stroke="#c96a62" stroke-width="1.5"/>
  <!-- Teeth -->
  <rect x="11" y="30" width="7"  height="13" rx="2.5" fill="#fff" stroke="#e0e0e0" stroke-width="1"/>
  <rect x="20" y="28" width="8"  height="15" rx="2.5" fill="#fff" stroke="#e0e0e0" stroke-width="1"/>
  <rect x="30" y="28" width="8"  height="15" rx="2.5" fill="#fff" stroke="#e0e0e0" stroke-width="1"/>
  <rect x="40" y="28" width="7"  height="15" rx="2.5" fill="#fff" stroke="#e0e0e0" stroke-width="1"/>
  <rect x="49" y="30" width="6"  height="13" rx="2.5" fill="#fff" stroke="#e0e0e0" stroke-width="1"/>
  <!-- Tooth dividers -->
  <line x1="18" y1="30" x2="18" y2="43" stroke="#e0e0e0" stroke-width="0.5"/>
  <line x1="28" y1="28" x2="28" y2="43" stroke="#e0e0e0" stroke-width="0.5"/>
  <line x1="38" y1="28" x2="38" y2="43" stroke="#e0e0e0" stroke-width="0.5"/>
  <line x1="48" y1="28" x2="48" y2="43" stroke="#e0e0e0" stroke-width="0.5"/>
</svg>
