<svg xmlns="http://www.w3.org/2000/svg" viewBox="0 0 512 512">
  <rect width="512" height="512" rx="96" fill="#2563eb"/>
  <!-- Tooth shape -->
  <path d="
    M256 80
    C220 80 195 95 180 115
    C165 95 145 85 125 88
    C95 92 78 118 78 148
    C78 175 88 198 100 218
    C115 242 118 258 116 278
    C112 312 118 345 130 368
    C138 384 148 392 160 390
    C172 388 180 376 184 360
    C190 338 196 320 210 310
    C220 304 232 302 256 302
    C280 302 292 304 302 310
    C316 320 322 338 328 360
    C332 376 340 388 352 390
    C364 392 374 384 382 368
    C394 345 400 312 396 278
    C394 258 397 242 412 218
    C424 198 434 175 434 148
    C434 118 417 92 387 88
    C367 85 347 95 332 115
    C317 95 292 80 256 80Z
  " fill="white" opacity="0.95"/>
</svg>
